<svg width="512" height="512" viewBox="0 0 512 512" fill="none" xmlns="http://www.w3.org/2000/svg">
<g clip-path="url(#clip0_188_1508)">
<path d="M453.8 392.984C453.1 392.984 452.412 393.013 451.721 393.037C451.384 393.014 451.049 392.986 450.706 392.986H202.754H202.696H202.639H182.439C176.233 392.986 170.281 390.521 165.893 386.132C161.504 381.744 159.039 375.792 159.039 369.586C159.039 363.38 161.504 357.428 165.893 353.04C170.281 348.651 176.233 346.186 182.439 346.186H435.993C456.144 346.163 475.464 338.148 489.713 323.898C503.963 309.649 511.978 290.329 512 270.177V159.158C512.026 152.997 509.737 147.052 505.586 142.499C501.435 137.947 495.725 135.12 489.588 134.579L159.036 104.032V50.83C159.026 45.1082 157.033 39.5666 153.396 35.1494C149.759 30.7322 144.703 27.7126 139.09 26.605L17.8788 2.9C15.9358 2.49654 13.9321 2.48262 11.9837 2.85905C10.0353 3.23547 8.18099 3.99477 6.52814 5.09294C4.87528 6.19112 3.45675 7.60634 2.35472 9.25664C1.2527 10.9069 0.489086 12.7595 0.108118 14.707C-0.272851 16.6545 -0.263601 18.6583 0.13533 20.6022C0.534262 22.5461 1.31495 24.3915 2.43216 26.0316C3.54937 27.6716 4.9809 29.0737 6.64383 30.1566C8.30676 31.2394 10.168 31.9816 12.1198 32.34L129.037 55.208V270.177C129.034 280.483 131.134 290.681 135.207 300.148C139.281 309.615 145.243 318.151 152.728 325.235C145.145 330.308 138.989 337.24 134.848 345.37C130.708 353.499 128.721 362.555 129.078 371.671C129.435 380.788 132.123 389.66 136.886 397.441C141.65 405.223 148.328 411.653 156.285 416.117C149.961 424.475 146.012 434.386 144.854 444.803C143.697 455.22 145.373 465.756 149.708 475.298C154.042 484.841 160.872 493.036 169.478 499.019C178.084 505.001 188.145 508.549 198.6 509.287C209.055 510.025 219.515 507.926 228.876 503.212C238.236 498.498 246.151 491.344 251.782 482.504C257.414 473.665 260.554 463.469 260.872 452.993C261.189 442.517 258.671 432.15 253.585 422.986H402.915C396.732 434.153 394.393 447.043 396.258 459.67C398.123 472.297 404.088 483.96 413.235 492.863C422.381 501.765 434.202 507.413 446.874 508.936C459.547 510.459 472.369 507.773 483.365 501.291C494.36 494.808 502.919 484.89 507.722 473.065C512.526 461.239 513.307 448.162 509.946 435.848C506.585 423.535 499.268 412.668 489.123 404.923C478.978 397.177 466.567 392.983 453.803 392.986L453.8 392.984ZM482 164.006V270.177C481.986 282.374 477.134 294.068 468.509 302.693C459.884 311.318 448.19 316.169 435.993 316.183H205.042C192.844 316.169 181.151 311.318 172.526 302.693C163.901 294.068 159.05 282.374 159.036 270.177V134.16L482 164.006ZM230.9 451.183C230.9 456.758 229.247 462.208 226.151 466.844C223.055 471.48 218.654 475.095 213.504 477.231C208.355 479.367 202.688 479.929 197.219 478.845C191.75 477.762 186.725 475.081 182.779 471.143C178.833 467.205 176.143 462.185 175.049 456.719C173.954 451.252 174.505 445.584 176.63 440.43C178.756 435.276 182.362 430.868 186.992 427.763C191.622 424.657 197.069 422.994 202.644 422.983H202.759C210.225 423.006 217.379 425.987 222.653 431.272C227.927 436.557 230.892 443.716 230.9 451.183ZM453.807 479.383C448.229 479.383 442.777 477.729 438.14 474.63C433.502 471.532 429.888 467.128 427.753 461.975C425.619 456.822 425.061 451.152 426.149 445.681C427.237 440.211 429.923 435.186 433.866 431.243C437.81 427.299 442.835 424.613 448.305 423.525C453.776 422.437 459.446 422.995 464.598 425.13C469.751 427.264 474.156 430.878 477.254 435.516C480.353 440.153 482.007 445.606 482.007 451.183C481.998 458.661 479.024 465.829 473.735 471.116C468.447 476.402 461.277 479.375 453.8 479.381L453.807 479.383Z" fill="white"/>
</g>
<defs>
<clipPath id="clip0_188_1508">
<rect width="512" height="512" fill="white"/>
</clipPath>
</defs>
</svg>
