<?xml version="1.0" standalone="no"?>
<!DOCTYPE svg PUBLIC "-//W3C//DTD SVG 20010904//EN"
 "http://www.w3.org/TR/2001/REC-SVG-20010904/DTD/svg10.dtd">
<svg version="1.0" xmlns="http://www.w3.org/2000/svg"
 width="512.000000pt" height="512.000000pt" viewBox="0 0 512.000000 512.000000"
 preserveAspectRatio="xMidYMid meet">

<g transform="translate(0.000000,512.000000) scale(0.100000,-0.100000)"
fill="#000000" stroke="none">
<path d="M2457 5109 c-71 -17 -151 -62 -208 -118 -45 -45 -208 -300 -823
-1284 -422 -676 -776 -1251 -787 -1279 -77 -197 12 -440 201 -551 103 -60 19
-57 1720 -57 1012 0 1570 4 1599 11 259 59 418 353 322 596 -11 29 -365 604
-787 1280 -824 1319 -818 1310 -935 1366 -96 45 -207 59 -302 36z m185 -313
c15 -10 319 -486 781 -1224 415 -664 762 -1221 771 -1239 34 -67 4 -158 -64
-194 -33 -18 -94 -19 -1570 -19 -1476 0 -1537 1 -1570 19 -19 10 -45 36 -58
57 -49 84 -94 4 754 1358 843 1347 790 1272 884 1263 25 -2 57 -11 72 -21z"/>
<path d="M2410 3620 l0 -600 150 0 150 0 0 600 0 600 -150 0 -150 0 0 -600z"/>
<path d="M2410 2570 l0 -150 150 0 150 0 0 150 0 150 -150 0 -150 0 0 -150z"/>
<path d="M610 1070 l0 -450 300 0 300 0 0 -310 0 -310 150 0 150 0 0 310 0
310 150 0 150 0 0 150 0 150 -150 0 -150 0 0 300 0 300 -150 0 -150 0 0 -300
0 -300 -150 0 -150 0 0 300 0 300 -150 0 -150 0 0 -450z"/>
<path d="M2110 760 l0 -760 450 0 450 0 0 760 0 760 -450 0 -450 0 0 -760z
m600 0 l0 -460 -150 0 -150 0 0 460 0 460 150 0 150 0 0 -460z"/>
<path d="M3310 1070 l0 -450 300 0 300 0 0 -310 0 -310 150 0 150 0 0 310 0
310 150 0 150 0 0 150 0 150 -150 0 -150 0 0 300 0 300 -150 0 -150 0 0 -300
0 -300 -150 0 -150 0 0 300 0 300 -150 0 -150 0 0 -450z"/>
</g>
</svg>
